<svg xmlns="http://www.w3.org/2000/svg" width="44" height="44" viewBox="0 0 44 44"><defs><clipPath id="lm2na"><path fill="#fff" d="M4 2h36a2 2 0 0 1 2 2v36a2 2 0 0 1-2 2H4a2 2 0 0 1-2-2V4a2 2 0 0 1 2-2z"/></clipPath></defs><g><g><path fill="#fff" d="M4 2h36a2 2 0 0 1 2 2v36a2 2 0 0 1-2 2H4a2 2 0 0 1-2-2V4a2 2 0 0 1 2-2z"/><path fill="none" stroke="#fff" stroke-linecap="round" stroke-linejoin="round" stroke-miterlimit="20" stroke-width="4" d="M4 2h36a2 2 0 0 1 2 2v36a2 2 0 0 1-2 2H4a2 2 0 0 1-2-2V4a2 2 0 0 1 2-2z" clip-path="url(&quot;#lm2na&quot;)"/></g><g><path fill="#fff" d="M26 18.829h-2.724V16.96c0-.701.444-.865.757-.865h1.923v-3.084L23.308 13c-2.94 0-3.608 2.3-3.608 3.773v2.056H18v3.178h1.7V31h3.576v-8.993h2.412z"/></g></g></svg>