<svg xmlns="http://www.w3.org/2000/svg" width="44" height="44" viewBox="0 0 44 44"><defs><clipPath id="i52xa"><path fill="#fff" d="M4 2h36a2 2 0 0 1 2 2v36a2 2 0 0 1-2 2H4a2 2 0 0 1-2-2V4a2 2 0 0 1 2-2z"/></clipPath></defs><g><g><path fill="#fff" d="M4 2h36a2 2 0 0 1 2 2v36a2 2 0 0 1-2 2H4a2 2 0 0 1-2-2V4a2 2 0 0 1 2-2z"/><path fill="none" stroke="#fff" stroke-linecap="round" stroke-linejoin="round" stroke-miterlimit="20" stroke-width="4" d="M4 2h36a2 2 0 0 1 2 2v36a2 2 0 0 1-2 2H4a2 2 0 0 1-2-2V4a2 2 0 0 1 2-2z" clip-path="url(&quot;#i52xa&quot;)"/></g><g><path fill="#fff" d="M22.588 21.217l.016-.025v.025zM30 15.147v13.707c0 .632-.53 1.146-1.183 1.146H15.182C14.529 30 14 29.486 14 28.854V15.146c0-.633.53-1.146 1.182-1.146h13.635c.654 0 1.183.513 1.183 1.146zm-11.15 5.022h-2.417v7.224h2.417zm.159-2.235c-.016-.709-.525-1.248-1.352-1.248-.826 0-1.367.54-1.367 1.248 0 .694.525 1.248 1.336 1.248h.016c.842 0 1.367-.554 1.367-1.248zm8.555 5.317c0-2.22-1.192-3.252-2.782-3.252-1.283 0-1.857.7-2.178 1.193v-1.023h-2.417c.032.677 0 7.224 0 7.224h2.417V23.36c0-.216.015-.432.08-.586.174-.432.572-.878 1.24-.878.874 0 1.223.662 1.223 1.633v3.865h2.417z"/></g></g></svg>